<?xml version="1.0" standalone="no"?>
<svg xmlns:xlink="http://www.w3.org/1999/xlink" id="wave" style="transform:rotate(0deg); transition: 0.3s" viewBox="0 0 1440 290" version="1.1" xmlns="http://www.w3.org/2000/svg"><defs><linearGradient id="sw-gradient-0" x1="0" x2="0" y1="1" y2="0"><stop stop-color="rgba(247, 65, 144, 1)" offset="0%"/><stop stop-color="rgba(244, 68, 67, 1)" offset="100%"/></linearGradient></defs><path style="transform:translate(0, 0px); opacity:1" fill="url(#sw-gradient-0)" d="M0,87L40,72.5C80,58,160,29,240,43.5C320,58,400,116,480,125.7C560,135,640,97,720,82.2C800,68,880,77,960,111.2C1040,145,1120,203,1200,193.3C1280,184,1360,106,1440,96.7C1520,87,1600,145,1680,169.2C1760,193,1840,184,1920,164.3C2000,145,2080,116,2160,120.8C2240,126,2320,164,2400,164.3C2480,164,2560,126,2640,135.3C2720,145,2800,203,2880,227.2C2960,251,3040,242,3120,232C3200,222,3280,213,3360,174C3440,135,3520,68,3600,53.2C3680,39,3760,77,3840,87C3920,97,4000,77,4080,101.5C4160,126,4240,193,4320,222.3C4400,251,4480,242,4560,232C4640,222,4720,213,4800,207.8C4880,203,4960,203,5040,193.3C5120,184,5200,164,5280,174C5360,184,5440,222,5520,236.8C5600,251,5680,242,5720,236.8L5760,232L5760,290L5720,290C5680,290,5600,290,5520,290C5440,290,5360,290,5280,290C5200,290,5120,290,5040,290C4960,290,4880,290,4800,290C4720,290,4640,290,4560,290C4480,290,4400,290,4320,290C4240,290,4160,290,4080,290C4000,290,3920,290,3840,290C3760,290,3680,290,3600,290C3520,290,3440,290,3360,290C3280,290,3200,290,3120,290C3040,290,2960,290,2880,290C2800,290,2720,290,2640,290C2560,290,2480,290,2400,290C2320,290,2240,290,2160,290C2080,290,2000,290,1920,290C1840,290,1760,290,1680,290C1600,290,1520,290,1440,290C1360,290,1280,290,1200,290C1120,290,1040,290,960,290C880,290,800,290,720,290C640,290,560,290,480,290C400,290,320,290,240,290C160,290,80,290,40,290L0,290Z"/></svg>